<svg width="1240" height="331" viewBox="0 0 1240 331" fill="none" xmlns="http://www.w3.org/2000/svg">
<circle cx="165.5" cy="165.5" r="165.5" fill="#D32F2F"/>
<path fill-rule="evenodd" clip-rule="evenodd" d="M255.285 151.36C252.18 156.63 253.936 163.419 259.206 166.524C264.476 169.629 271.265 167.873 274.37 162.603C277.474 157.333 275.719 150.543 270.449 147.439C265.178 144.334 258.389 146.09 255.285 151.36ZM252.32 178.212C248.14 175.749 244.953 172.245 242.897 168.223L204.62 175.195C204.603 177.494 204.382 179.824 203.941 182.167C199.839 203.988 178.434 217.862 156.543 213.747C150.186 212.552 144.417 209.958 139.532 206.344L113.472 232.403C116.55 237.229 117.893 243.154 116.747 249.247C114.303 262.25 101.583 270.424 88.6779 267.999C75.7731 265.573 66.8891 253.337 69.3333 240.335C71.7775 227.332 84.4981 219.158 97.4028 221.583C99.8062 222.035 102.07 222.827 104.148 223.901L130.67 197.379C124.565 188.914 121.772 178.157 123.848 167.112C127.369 148.379 143.642 135.504 162.027 134.838L166.121 100.708C164.494 99.9139 162.946 98.8907 161.522 97.6359C152.968 90.0976 152.145 77.0525 159.683 68.4987C167.222 59.945 180.267 59.1218 188.82 66.6601C197.374 74.1984 198.197 87.2435 190.659 95.7972C187.056 99.8859 182.194 102.208 177.167 102.695L172.801 135.855C187.539 139.205 198.876 150.137 202.967 163.708L240.188 156.464C240.27 152.375 241.373 148.25 243.596 144.474C250.504 132.749 265.609 128.843 277.334 135.751C289.06 142.658 292.965 157.763 286.058 169.488C279.151 181.214 264.046 185.12 252.32 178.212ZM91.184 254.666C97.1022 255.779 102.425 252.01 103.415 246.741C104.406 241.473 100.815 236.028 94.8967 234.915C88.9784 233.803 83.6557 237.572 82.6654 242.841C81.675 248.109 85.2657 253.554 91.184 254.666ZM187.943 179.16C185.585 191.7 173.058 200.287 159.551 197.748C146.043 195.209 137.489 182.659 139.846 170.119C142.204 157.579 154.731 148.992 168.238 151.531C181.746 154.07 190.3 166.62 187.943 179.16ZM180.482 86.8281C183.066 83.8951 182.784 79.4222 179.851 76.8375C176.918 74.2527 172.445 74.535 169.861 77.4679C167.276 80.4008 167.558 84.8738 170.491 87.4585C173.424 90.0432 177.897 89.761 180.482 86.8281Z" fill="white"/>
<path d="M404.156 181V54.4545H458.778C468.17 54.4545 476.388 56.1641 483.433 59.5831C490.477 63.0021 495.955 67.9247 499.869 74.3509C503.782 80.777 505.739 88.4801 505.739 97.4602C505.739 106.523 503.72 114.164 499.683 120.384C495.688 126.604 490.065 131.3 482.815 134.472C475.606 137.644 467.182 139.23 457.543 139.23H424.918V112.537H450.622C454.659 112.537 458.099 112.043 460.941 111.054C463.825 110.024 466.028 108.397 467.553 106.173C469.118 103.948 469.901 101.044 469.901 97.4602C469.901 93.8352 469.118 90.8899 467.553 88.6243C466.028 86.3175 463.825 84.6285 460.941 83.5575C458.099 82.4453 454.659 81.8892 450.622 81.8892H438.511V181H404.156ZM478.304 122.918L509.94 181H472.619L441.724 122.918H478.304ZM558.218 54.4545V181H523.863V54.4545H558.218ZM700.57 117.727C700.57 131.815 697.831 143.7 692.352 153.38C686.874 163.019 679.48 170.331 670.17 175.315C660.86 180.259 650.48 182.73 639.028 182.73C627.494 182.73 617.072 180.238 607.762 175.254C598.494 170.228 591.12 162.896 585.641 153.256C580.204 143.576 577.485 131.733 577.485 117.727C577.485 103.639 580.204 91.7756 585.641 82.1364C591.12 72.456 598.494 65.1442 607.762 60.201C617.072 55.2166 627.494 52.7244 639.028 52.7244C650.48 52.7244 660.86 55.2166 670.17 60.201C679.48 65.1442 686.874 72.456 692.352 82.1364C697.831 91.7756 700.57 103.639 700.57 117.727ZM665.227 117.727C665.227 110.148 664.217 103.763 662.199 98.5724C660.222 93.3409 657.276 89.3864 653.363 86.7088C649.491 83.9901 644.712 82.6307 639.028 82.6307C633.343 82.6307 628.544 83.9901 624.631 86.7088C620.759 89.3864 617.813 93.3409 615.795 98.5724C613.818 103.763 612.829 110.148 612.829 117.727C612.829 125.307 613.818 131.712 615.795 136.944C617.813 142.134 620.759 146.089 624.631 148.808C628.544 151.485 633.343 152.824 639.028 152.824C644.712 152.824 649.491 151.485 653.363 148.808C657.276 146.089 660.222 142.134 662.199 136.944C664.217 131.712 665.227 125.307 665.227 117.727ZM710.538 82.1364V54.4545H820.524V82.1364H782.462V181H748.601V82.1364H710.538ZM907.95 181H870.876L912.646 54.4545H959.606L1001.38 181H964.302L936.62 89.304H935.632L907.95 181ZM901.029 131.074H970.728V156.778H901.029V131.074ZM1017.04 181V54.4545H1071.67C1081.06 54.4545 1089.28 56.3082 1096.32 60.0156C1103.36 63.723 1108.84 68.9339 1112.76 75.6484C1116.67 82.3629 1118.63 90.2102 1118.63 99.1903C1118.63 108.253 1116.61 116.1 1112.57 122.732C1108.58 129.364 1102.95 134.472 1095.7 138.056C1088.49 141.64 1080.07 143.432 1070.43 143.432H1037.81V116.739H1063.51C1067.55 116.739 1070.99 116.038 1073.83 114.638C1076.71 113.196 1078.92 111.157 1080.44 108.521C1082.01 105.884 1082.79 102.774 1082.79 99.1903C1082.79 95.5653 1082.01 92.4758 1080.44 89.9219C1078.92 87.3267 1076.71 85.3494 1073.83 83.9901C1070.99 82.5895 1067.55 81.8892 1063.51 81.8892H1051.4V181H1017.04ZM1169.07 54.4545V181H1134.71V54.4545H1169.07ZM465.682 253.364H446.455C446.318 251.773 445.955 250.33 445.364 249.034C444.795 247.739 444 246.625 442.977 245.693C441.977 244.739 440.761 244.011 439.33 243.511C437.898 242.989 436.273 242.727 434.455 242.727C431.273 242.727 428.58 243.5 426.375 245.045C424.193 246.591 422.534 248.807 421.398 251.693C420.284 254.58 419.727 258.045 419.727 262.091C419.727 266.364 420.295 269.943 421.432 272.83C422.591 275.693 424.261 277.852 426.443 279.307C428.625 280.739 431.25 281.455 434.318 281.455C436.068 281.455 437.636 281.239 439.023 280.807C440.409 280.352 441.614 279.705 442.636 278.864C443.659 278.023 444.489 277.011 445.125 275.83C445.784 274.625 446.227 273.273 446.455 271.773L465.682 271.909C465.455 274.864 464.625 277.875 463.193 280.943C461.761 283.989 459.727 286.807 457.091 289.398C454.477 291.966 451.239 294.034 447.375 295.602C443.511 297.17 439.023 297.955 433.909 297.955C427.5 297.955 421.75 296.58 416.659 293.83C411.591 291.08 407.58 287.034 404.625 281.693C401.693 276.352 400.227 269.818 400.227 262.091C400.227 254.318 401.727 247.773 404.727 242.455C407.727 237.114 411.773 233.08 416.864 230.352C421.955 227.602 427.636 226.227 433.909 226.227C438.318 226.227 442.375 226.83 446.08 228.034C449.784 229.239 453.034 231 455.83 233.318C458.625 235.614 460.875 238.443 462.58 241.807C464.284 245.17 465.318 249.023 465.682 253.364ZM560.158 262.091C560.158 269.864 558.646 276.42 555.624 281.761C552.601 287.08 548.521 291.114 543.385 293.864C538.249 296.591 532.521 297.955 526.203 297.955C519.839 297.955 514.089 296.58 508.953 293.83C503.839 291.057 499.771 287.011 496.749 281.693C493.749 276.352 492.249 269.818 492.249 262.091C492.249 254.318 493.749 247.773 496.749 242.455C499.771 237.114 503.839 233.08 508.953 230.352C514.089 227.602 519.839 226.227 526.203 226.227C532.521 226.227 538.249 227.602 543.385 230.352C548.521 233.08 552.601 237.114 555.624 242.455C558.646 247.773 560.158 254.318 560.158 262.091ZM540.658 262.091C540.658 257.909 540.101 254.386 538.987 251.523C537.896 248.636 536.271 246.455 534.112 244.977C531.976 243.477 529.339 242.727 526.203 242.727C523.067 242.727 520.419 243.477 518.26 244.977C516.124 246.455 514.499 248.636 513.385 251.523C512.294 254.386 511.749 257.909 511.749 262.091C511.749 266.273 512.294 269.807 513.385 272.693C514.499 275.557 516.124 277.739 518.26 279.239C520.419 280.716 523.067 281.455 526.203 281.455C529.339 281.455 531.976 280.716 534.112 279.239C536.271 277.739 537.896 275.557 538.987 272.693C540.101 269.807 540.658 266.273 540.658 262.091ZM647.577 227.182V297H631.758L606.531 260.318H606.122V297H587.167V227.182H603.258L628.077 263.727H628.622V227.182H647.577ZM735.192 227.182V297H719.373L694.146 260.318H693.737V297H674.783V227.182H690.873L715.692 263.727H716.237V227.182H735.192ZM762.397 297V227.182H812.716V242.455H781.352V254.455H810.125V269.727H781.352V281.727H812.579V297H762.397ZM905.538 253.364H886.311C886.174 251.773 885.811 250.33 885.22 249.034C884.652 247.739 883.856 246.625 882.834 245.693C881.834 244.739 880.618 244.011 879.186 243.511C877.754 242.989 876.129 242.727 874.311 242.727C871.129 242.727 868.436 243.5 866.231 245.045C864.049 246.591 862.39 248.807 861.254 251.693C860.14 254.58 859.584 258.045 859.584 262.091C859.584 266.364 860.152 269.943 861.288 272.83C862.447 275.693 864.118 277.852 866.299 279.307C868.481 280.739 871.106 281.455 874.174 281.455C875.924 281.455 877.493 281.239 878.879 280.807C880.265 280.352 881.47 279.705 882.493 278.864C883.515 278.023 884.345 277.011 884.981 275.83C885.64 274.625 886.084 273.273 886.311 271.773L905.538 271.909C905.311 274.864 904.481 277.875 903.049 280.943C901.618 283.989 899.584 286.807 896.947 289.398C894.334 291.966 891.095 294.034 887.231 295.602C883.368 297.17 878.879 297.955 873.765 297.955C867.356 297.955 861.606 296.58 856.515 293.83C851.447 291.08 847.436 287.034 844.481 281.693C841.549 276.352 840.084 269.818 840.084 262.091C840.084 254.318 841.584 247.773 844.584 242.455C847.584 237.114 851.629 233.08 856.72 230.352C861.811 227.602 867.493 226.227 873.765 226.227C878.174 226.227 882.231 226.83 885.936 228.034C889.64 229.239 892.89 231 895.686 233.318C898.481 235.614 900.731 238.443 902.436 241.807C904.14 245.17 905.174 249.023 905.538 253.364ZM930.468 242.455V227.182H991.15V242.455H970.15V297H951.468V242.455H930.468ZM1080.88 262.091C1080.88 269.864 1079.37 276.42 1076.34 281.761C1073.32 287.08 1069.24 291.114 1064.11 293.864C1058.97 296.591 1053.24 297.955 1046.92 297.955C1040.56 297.955 1034.81 296.58 1029.67 293.83C1024.56 291.057 1020.49 287.011 1017.47 281.693C1014.47 276.352 1012.97 269.818 1012.97 262.091C1012.97 254.318 1014.47 247.773 1017.47 242.455C1020.49 237.114 1024.56 233.08 1029.67 230.352C1034.81 227.602 1040.56 226.227 1046.92 226.227C1053.24 226.227 1058.97 227.602 1064.11 230.352C1069.24 233.08 1073.32 237.114 1076.34 242.455C1079.37 247.773 1080.88 254.318 1080.88 262.091ZM1061.38 262.091C1061.38 257.909 1060.82 254.386 1059.71 251.523C1058.62 248.636 1056.99 246.455 1054.83 244.977C1052.7 243.477 1050.06 242.727 1046.92 242.727C1043.79 242.727 1041.14 243.477 1038.98 244.977C1036.84 246.455 1035.22 248.636 1034.11 251.523C1033.02 254.386 1032.47 257.909 1032.47 262.091C1032.47 266.273 1033.02 269.807 1034.11 272.693C1035.22 275.557 1036.84 277.739 1038.98 279.239C1041.14 280.716 1043.79 281.455 1046.92 281.455C1050.06 281.455 1052.7 280.716 1054.83 279.239C1056.99 277.739 1058.62 275.557 1059.71 272.693C1060.82 269.807 1061.38 266.273 1061.38 262.091ZM1107.89 297V227.182H1138.03C1143.21 227.182 1147.74 228.125 1151.63 230.011C1155.51 231.898 1158.54 234.614 1160.7 238.159C1162.85 241.705 1163.93 245.955 1163.93 250.909C1163.93 255.909 1162.82 260.125 1160.59 263.557C1158.39 266.989 1155.29 269.58 1151.29 271.33C1147.31 273.08 1142.66 273.955 1137.34 273.955H1119.34V259.227H1133.53C1135.75 259.227 1137.65 258.955 1139.22 258.409C1140.81 257.841 1142.03 256.943 1142.87 255.716C1143.73 254.489 1144.16 252.886 1144.16 250.909C1144.16 248.909 1143.73 247.284 1142.87 246.034C1142.03 244.761 1140.81 243.83 1139.22 243.239C1137.65 242.625 1135.75 242.318 1133.53 242.318H1126.84V297H1107.89ZM1148.8 264.955L1166.25 297H1145.66L1128.62 264.955H1148.8Z" fill="#D32F2F"/>
</svg>
