<svg width="1446" height="512" viewBox="0 0 1446 512" fill="none" xmlns="http://www.w3.org/2000/svg">
<g clip-path="url(#clip0_8_74)">
<g clip-path="url(#clip1_8_74)">
<circle cx="256" cy="256" r="256" fill="#D32F2F"/>
<path fill-rule="evenodd" clip-rule="evenodd" d="M394.882 234.128C390.079 242.28 392.795 252.782 400.947 257.584C409.099 262.386 419.601 259.671 424.403 251.519C429.205 243.367 426.49 232.865 418.338 228.063C410.186 223.26 399.684 225.976 394.882 234.128ZM390.296 275.664C383.83 271.854 378.901 266.433 375.719 260.212L316.512 270.997C316.485 274.552 316.143 278.157 315.462 281.782C309.117 315.535 276.007 336.995 242.145 330.63C232.311 328.781 223.388 324.769 215.832 319.179L175.522 359.488C180.283 366.953 182.36 376.118 180.588 385.543C176.807 405.656 157.131 418.3 137.169 414.548C117.208 410.796 103.466 391.869 107.247 371.756C111.027 351.644 130.704 338.999 150.665 342.752C154.383 343.45 157.885 344.676 161.098 346.337L202.123 305.312C192.681 292.218 188.36 275.578 191.571 258.493C197.018 229.517 222.189 209.601 250.628 208.571L256.96 155.778C254.444 154.55 252.049 152.967 249.847 151.026C236.615 139.366 235.342 119.187 247.002 105.956C258.663 92.7247 278.841 91.4514 292.073 103.112C305.304 114.772 306.577 134.951 294.917 148.182C289.343 154.506 281.823 158.099 274.046 158.852L267.293 210.145C290.091 215.326 307.627 232.237 313.955 253.229L371.529 242.024C371.656 235.698 373.362 229.317 376.802 223.477C387.486 205.34 410.851 199.298 428.988 209.983C447.125 220.667 453.167 244.032 442.483 262.169C431.798 280.306 408.433 286.348 390.296 275.664ZM159.966 381.666C158.434 389.816 150.2 395.646 141.046 393.925C131.891 392.205 126.337 383.783 127.869 375.633C129.401 367.483 137.634 361.653 146.789 363.374C155.943 365.095 161.498 373.517 159.966 381.666ZM246.797 305.883C267.691 309.81 287.069 296.527 290.715 277.13C294.361 257.733 281.129 238.32 260.236 234.392C239.342 230.465 219.964 243.748 216.318 263.145C212.672 282.542 225.904 301.955 246.797 305.883ZM279.174 134.308C283.172 129.771 282.736 122.853 278.199 118.854C273.662 114.856 266.743 115.293 262.745 119.83C258.747 124.366 259.184 131.285 263.72 135.283C268.257 139.281 275.176 138.845 279.174 134.308Z" fill="white"/>
</g>
<path d="M610.156 271V144.455H664.778C674.17 144.455 682.388 146.164 689.433 149.583C696.477 153.002 701.955 157.925 705.869 164.351C709.782 170.777 711.739 178.48 711.739 187.46C711.739 196.523 709.72 204.164 705.683 210.384C701.688 216.604 696.065 221.3 688.815 224.472C681.606 227.644 673.182 229.23 663.543 229.23H630.918V202.537H656.622C660.659 202.537 664.099 202.043 666.941 201.054C669.825 200.024 672.028 198.397 673.553 196.173C675.118 193.948 675.901 191.044 675.901 187.46C675.901 183.835 675.118 180.89 673.553 178.624C672.028 176.317 669.825 174.629 666.941 173.558C664.099 172.445 660.659 171.889 656.622 171.889H644.511V271H610.156ZM684.304 212.918L715.94 271H678.619L647.724 212.918H684.304ZM764.218 144.455V271H729.863V144.455H764.218ZM906.57 207.727C906.57 221.815 903.831 233.7 898.352 243.38C892.874 253.019 885.48 260.331 876.17 265.315C866.86 270.259 856.48 272.73 845.028 272.73C833.494 272.73 823.072 270.238 813.762 265.254C804.494 260.228 797.12 252.896 791.641 243.256C786.204 233.576 783.485 221.733 783.485 207.727C783.485 193.639 786.204 181.776 791.641 172.136C797.12 162.456 804.494 155.144 813.762 150.201C823.072 145.217 833.494 142.724 845.028 142.724C856.48 142.724 866.86 145.217 876.17 150.201C885.48 155.144 892.874 162.456 898.352 172.136C903.831 181.776 906.57 193.639 906.57 207.727ZM871.227 207.727C871.227 200.148 870.217 193.763 868.199 188.572C866.222 183.341 863.276 179.386 859.363 176.709C855.491 173.99 850.712 172.631 845.028 172.631C839.343 172.631 834.544 173.99 830.631 176.709C826.759 179.386 823.813 183.341 821.795 188.572C819.818 193.763 818.829 200.148 818.829 207.727C818.829 215.307 819.818 221.712 821.795 226.944C823.813 232.134 826.759 236.089 830.631 238.808C834.544 241.485 839.343 242.824 845.028 242.824C850.712 242.824 855.491 241.485 859.363 238.808C863.276 236.089 866.222 232.134 868.199 226.944C870.217 221.712 871.227 215.307 871.227 207.727ZM916.538 172.136V144.455H1026.52V172.136H988.462V271H954.601V172.136H916.538ZM1113.95 271H1076.88L1118.65 144.455H1165.61L1207.38 271H1170.3L1142.62 179.304H1141.63L1113.95 271ZM1107.03 221.074H1176.73V246.778H1107.03V221.074ZM1223.04 271V144.455H1277.67C1287.06 144.455 1295.28 146.308 1302.32 150.016C1309.36 153.723 1314.84 158.934 1318.76 165.648C1322.67 172.363 1324.63 180.21 1324.63 189.19C1324.63 198.253 1322.61 206.1 1318.57 212.732C1314.58 219.364 1308.95 224.472 1301.7 228.056C1294.49 231.64 1286.07 233.432 1276.43 233.432H1243.81V206.739H1269.51C1273.55 206.739 1276.99 206.038 1279.83 204.638C1282.71 203.196 1284.92 201.157 1286.44 198.521C1288.01 195.884 1288.79 192.774 1288.79 189.19C1288.79 185.565 1288.01 182.476 1286.44 179.922C1284.92 177.327 1282.71 175.349 1279.83 173.99C1276.99 172.589 1273.55 171.889 1269.51 171.889H1257.4V271H1223.04ZM1375.07 144.455V271H1340.71V144.455H1375.07ZM671.682 343.364H652.455C652.318 341.773 651.955 340.33 651.364 339.034C650.795 337.739 650 336.625 648.977 335.693C647.977 334.739 646.761 334.011 645.33 333.511C643.898 332.989 642.273 332.727 640.455 332.727C637.273 332.727 634.58 333.5 632.375 335.045C630.193 336.591 628.534 338.807 627.398 341.693C626.284 344.58 625.727 348.045 625.727 352.091C625.727 356.364 626.295 359.943 627.432 362.83C628.591 365.693 630.261 367.852 632.443 369.307C634.625 370.739 637.25 371.455 640.318 371.455C642.068 371.455 643.636 371.239 645.023 370.807C646.409 370.352 647.614 369.705 648.636 368.864C649.659 368.023 650.489 367.011 651.125 365.83C651.784 364.625 652.227 363.273 652.455 361.773L671.682 361.909C671.455 364.864 670.625 367.875 669.193 370.943C667.761 373.989 665.727 376.807 663.091 379.398C660.477 381.966 657.239 384.034 653.375 385.602C649.511 387.17 645.023 387.955 639.909 387.955C633.5 387.955 627.75 386.58 622.659 383.83C617.591 381.08 613.58 377.034 610.625 371.693C607.693 366.352 606.227 359.818 606.227 352.091C606.227 344.318 607.727 337.773 610.727 332.455C613.727 327.114 617.773 323.08 622.864 320.352C627.955 317.602 633.636 316.227 639.909 316.227C644.318 316.227 648.375 316.83 652.08 318.034C655.784 319.239 659.034 321 661.83 323.318C664.625 325.614 666.875 328.443 668.58 331.807C670.284 335.17 671.318 339.023 671.682 343.364ZM766.158 352.091C766.158 359.864 764.646 366.42 761.624 371.761C758.601 377.08 754.521 381.114 749.385 383.864C744.249 386.591 738.521 387.955 732.203 387.955C725.839 387.955 720.089 386.58 714.953 383.83C709.839 381.057 705.771 377.011 702.749 371.693C699.749 366.352 698.249 359.818 698.249 352.091C698.249 344.318 699.749 337.773 702.749 332.455C705.771 327.114 709.839 323.08 714.953 320.352C720.089 317.602 725.839 316.227 732.203 316.227C738.521 316.227 744.249 317.602 749.385 320.352C754.521 323.08 758.601 327.114 761.624 332.455C764.646 337.773 766.158 344.318 766.158 352.091ZM746.658 352.091C746.658 347.909 746.101 344.386 744.987 341.523C743.896 338.636 742.271 336.455 740.112 334.977C737.976 333.477 735.339 332.727 732.203 332.727C729.067 332.727 726.419 333.477 724.26 334.977C722.124 336.455 720.499 338.636 719.385 341.523C718.294 344.386 717.749 347.909 717.749 352.091C717.749 356.273 718.294 359.807 719.385 362.693C720.499 365.557 722.124 367.739 724.26 369.239C726.419 370.716 729.067 371.455 732.203 371.455C735.339 371.455 737.976 370.716 740.112 369.239C742.271 367.739 743.896 365.557 744.987 362.693C746.101 359.807 746.658 356.273 746.658 352.091ZM853.577 317.182V387H837.758L812.531 350.318H812.122V387H793.167V317.182H809.258L834.077 353.727H834.622V317.182H853.577ZM941.192 317.182V387H925.373L900.146 350.318H899.737V387H880.783V317.182H896.873L921.692 353.727H922.237V317.182H941.192ZM968.397 387V317.182H1018.72V332.455H987.352V344.455H1016.12V359.727H987.352V371.727H1018.58V387H968.397ZM1111.54 343.364H1092.31C1092.17 341.773 1091.81 340.33 1091.22 339.034C1090.65 337.739 1089.86 336.625 1088.83 335.693C1087.83 334.739 1086.62 334.011 1085.19 333.511C1083.75 332.989 1082.13 332.727 1080.31 332.727C1077.13 332.727 1074.44 333.5 1072.23 335.045C1070.05 336.591 1068.39 338.807 1067.25 341.693C1066.14 344.58 1065.58 348.045 1065.58 352.091C1065.58 356.364 1066.15 359.943 1067.29 362.83C1068.45 365.693 1070.12 367.852 1072.3 369.307C1074.48 370.739 1077.11 371.455 1080.17 371.455C1081.92 371.455 1083.49 371.239 1084.88 370.807C1086.27 370.352 1087.47 369.705 1088.49 368.864C1089.52 368.023 1090.34 367.011 1090.98 365.83C1091.64 364.625 1092.08 363.273 1092.31 361.773L1111.54 361.909C1111.31 364.864 1110.48 367.875 1109.05 370.943C1107.62 373.989 1105.58 376.807 1102.95 379.398C1100.33 381.966 1097.09 384.034 1093.23 385.602C1089.37 387.17 1084.88 387.955 1079.77 387.955C1073.36 387.955 1067.61 386.58 1062.52 383.83C1057.45 381.08 1053.44 377.034 1050.48 371.693C1047.55 366.352 1046.08 359.818 1046.08 352.091C1046.08 344.318 1047.58 337.773 1050.58 332.455C1053.58 327.114 1057.63 323.08 1062.72 320.352C1067.81 317.602 1073.49 316.227 1079.77 316.227C1084.17 316.227 1088.23 316.83 1091.94 318.034C1095.64 319.239 1098.89 321 1101.69 323.318C1104.48 325.614 1106.73 328.443 1108.44 331.807C1110.14 335.17 1111.17 339.023 1111.54 343.364ZM1136.47 332.455V317.182H1197.15V332.455H1176.15V387H1157.47V332.455H1136.47ZM1286.88 352.091C1286.88 359.864 1285.37 366.42 1282.34 371.761C1279.32 377.08 1275.24 381.114 1270.11 383.864C1264.97 386.591 1259.24 387.955 1252.92 387.955C1246.56 387.955 1240.81 386.58 1235.67 383.83C1230.56 381.057 1226.49 377.011 1223.47 371.693C1220.47 366.352 1218.97 359.818 1218.97 352.091C1218.97 344.318 1220.47 337.773 1223.47 332.455C1226.49 327.114 1230.56 323.08 1235.67 320.352C1240.81 317.602 1246.56 316.227 1252.92 316.227C1259.24 316.227 1264.97 317.602 1270.11 320.352C1275.24 323.08 1279.32 327.114 1282.34 332.455C1285.37 337.773 1286.88 344.318 1286.88 352.091ZM1267.38 352.091C1267.38 347.909 1266.82 344.386 1265.71 341.523C1264.62 338.636 1262.99 336.455 1260.83 334.977C1258.7 333.477 1256.06 332.727 1252.92 332.727C1249.79 332.727 1247.14 333.477 1244.98 334.977C1242.84 336.455 1241.22 338.636 1240.11 341.523C1239.02 344.386 1238.47 347.909 1238.47 352.091C1238.47 356.273 1239.02 359.807 1240.11 362.693C1241.22 365.557 1242.84 367.739 1244.98 369.239C1247.14 370.716 1249.79 371.455 1252.92 371.455C1256.06 371.455 1258.7 370.716 1260.83 369.239C1262.99 367.739 1264.62 365.557 1265.71 362.693C1266.82 359.807 1267.38 356.273 1267.38 352.091ZM1313.89 387V317.182H1344.03C1349.21 317.182 1353.74 318.125 1357.63 320.011C1361.51 321.898 1364.54 324.614 1366.7 328.159C1368.85 331.705 1369.93 335.955 1369.93 340.909C1369.93 345.909 1368.82 350.125 1366.59 353.557C1364.39 356.989 1361.29 359.58 1357.29 361.33C1353.31 363.08 1348.66 363.955 1343.34 363.955H1325.34V349.227H1339.53C1341.75 349.227 1343.65 348.955 1345.22 348.409C1346.81 347.841 1348.03 346.943 1348.87 345.716C1349.73 344.489 1350.16 342.886 1350.16 340.909C1350.16 338.909 1349.73 337.284 1348.87 336.034C1348.03 334.761 1346.81 333.83 1345.22 333.239C1343.65 332.625 1341.75 332.318 1339.53 332.318H1332.84V387H1313.89ZM1354.8 354.955L1372.25 387H1351.66L1334.62 354.955H1354.8Z" fill="#D32F2F"/>
</g>
<defs>
<clipPath id="clip0_8_74">
<rect width="1446" height="512" fill="white"/>
</clipPath>
<clipPath id="clip1_8_74">
<rect width="512" height="512" fill="white"/>
</clipPath>
</defs>
</svg>
